<?xml version="1.0" encoding="UTF-8" standalone="no"?>
<!-- Created with Inkscape (http://www.inkscape.org/) -->

<svg
   width="51.097614mm"
   height="87.459496mm"
   viewBox="0 0 51.097614 87.459496"
   version="1.1"
   id="svg5"
   xmlns="http://www.w3.org/2000/svg"
   xmlns:svg="http://www.w3.org/2000/svg">
  <defs
     id="defs2" />
  <g
     id="layer1"
     transform="translate(-0.64706523,0.18335388)">
    <g
       style="fill:none"
       id="g18"
       transform="matrix(0.20578704,0,0,0.20578704,-23.707023,0.84558132)">
      <path
         fill="#ffff00"
         stroke="#000000"
         stroke-width="10"
         transform="matrix(-1,0,0,1,450,0)"
         d="M 325.662,3.768 C 324.325,1.437 321.844,0 319.157,0 H 164.555 c -3.218,0 -6.078,2.053 -7.107,5.102 L 91.19,201.421 c -0.772,2.289 -0.394,4.81 1.014,6.772 1.409,1.962 3.677,3.126 6.093,3.126 h 62.812 L 88.817,404.876 c -1.278,3.422 0.096,7.268 3.254,9.106 1.18,0.686 2.48,1.018 3.769,1.018 2.16,0 4.287,-0.932 5.756,-2.687 l 201.228,-240.49 c 1.869,-2.234 2.276,-5.348 1.043,-7.987 -1.232,-2.639 -3.882,-4.326 -6.795,-4.326 H 238.978 L 325.632,11.286 c 1.356,-2.32 1.368,-5.187 0.03,-7.518 z"
         id="path9" />
    </g>
  </g>
</svg>
